inDegrees=no
num_controls=7
num_derivatives=13
num_iterations=148
num_multipliers=7
num_parameters=0
num_slacks=7
num_states=26
objective=0.542765
objective_accelerations=0.067987
objective_balance=0.003490
objective_effort=0.048976
objective_height=0.413171
objective_ligament=0.009141
solver_duration=1736.577542
status=Solve_Succeeded
success=true
DataType=double
version=3
OpenSimVersion=4.5
endheader
time	/jointset/ground_pelvis/pelvis_tilt/value	/jointset/ground_pelvis/pelvis_tx/value	/jointset/ground_pelvis/pelvis_ty/value	/jointset/hip_r/hip_flexion_r/value	/jointset/hip_r/hip_adduction_r/value	/jointset/hip_r/hip_rotation_r/value	/jointset/back/lumbar_extension/value	/jointset/patellofemoral_r/patellar_flexion_r/value	/jointset/knee_r/knee_flexion_r/value	/jointset/knee_r/knee_adduction_r/value	/jointset/knee_r/knee_rotation_r/value	/jointset/ankle_r/ankle_angle_r/value	/jointset/subtalar_r/subtalar_angle_r/value	/jointset/ground_pelvis/pelvis_tilt/speed	/jointset/ground_pelvis/pelvis_tx/speed	/jointset/ground_pelvis/pelvis_ty/speed	/jointset/hip_r/hip_flexion_r/speed	/jointset/hip_r/hip_adduction_r/speed	/jointset/hip_r/hip_rotation_r/speed	/jointset/back/lumbar_extension/speed	/jointset/patellofemoral_r/patellar_flexion_r/speed	/jointset/knee_r/knee_flexion_r/speed	/jointset/knee_r/knee_adduction_r/speed	/jointset/knee_r/knee_rotation_r/speed	/jointset/ankle_r/ankle_angle_r/speed	/jointset/subtalar_r/subtalar_angle_r/speed	/forceset/tau_hip_flexion_r	/forceset/tau_hip_adduction_r	/forceset/tau_hip_rotation_r	/forceset/tau_knee_flexion_r	/forceset/tau_ankle_angle_r	/forceset/tau_subtalar_angle_r	/forceset/tau_lumbar_extension	lambda_cid13_p0	lambda_cid14_p0	lambda_cid14_p1	lambda_cid14_p2	lambda_cid14_p3	lambda_cid14_p4	lambda_cid14_p5	/jointset/ground_pelvis/pelvis_tilt/accel	/jointset/ground_pelvis/pelvis_tx/accel	/jointset/ground_pelvis/pelvis_ty/accel	/jointset/hip_r/hip_flexion_r/accel	/jointset/hip_r/hip_adduction_r/accel	/jointset/hip_r/hip_rotation_r/accel	/jointset/back/lumbar_extension/accel	/jointset/patellofemoral_r/patellar_flexion_r/accel	/jointset/knee_r/knee_flexion_r/accel	/jointset/knee_r/knee_adduction_r/accel	/jointset/knee_r/knee_rotation_r/accel	/jointset/ankle_r/ankle_angle_r/accel	/jointset/subtalar_r/subtalar_angle_r/accel	gamma_cid13_p0	gamma_cid14_p0	gamma_cid14_p1	gamma_cid14_p2	gamma_cid14_p3	gamma_cid14_p4	gamma_cid14_p5
0	-0.006235455678565215	0.09614393287463144	0.9427221913283621	0.1762555222360518	-0.23222711808787	-0.2596174294402316	-0.038598046466844	0.07317863873451275	0.07317863873451017	0.1745275146551843	0.1725976801666487	0.03247278518263602	-0.003559325326496438	0	0	0	0	0	0	0	0	0	0	0	0	0	0.2353953094542499	-0.1632744492962387	-0.04333342478658805	-0.403750033866248	0.3839194271820743	-0.1410069105115948	-0.1331781680388104	-39.02050056501039	73.61616728104019	-38.65870364520601	-4.446161437451514	-23.04457107972952	-675.1931034984468	59.56185365275193	-2.870410814013465	-1.618317225916667	-0.7925762525418557	11.96756537487832	0.3639447417454377	2.894119301275436	-5.49146726800798	11.7170012722986	11.71700127229882	-3.860048568198291	0.3821996927898074	3.682469852343544	1.212243396504071	1.516160239579002e-07	7.971553559778905e-08	-1.024081858150767e-06	3.335350032848285e-07	5.922411732739164e-08	2.406529773123919e-08	-5.305371688674971e-07
0.01	-0.006370036780520534	0.09606404764996208	0.9426840783640866	0.176835012653006	-0.2322074125983232	-0.2594629399718881	-0.03887685704406974	0.07374807946010246	0.07374807946010006	0.1743347100548548	0.1726023448333004	0.03265224390749776	-0.003498315421603883	-0.02679789599214779	-0.0159125676163523	-0.007609740928167359	0.1153819786849073	0.003876751647500099	0.03073457221889691	-0.05539755781816255	0.113386365430268	0.1133863654302722	-0.03827566312886884	0.0009402240405801286	0.03570651111399693	0.01209367914074322	0.229401548877123	-0.1721432635401238	-0.04181413252267188	-0.3962469248821837	0.3713818144417763	-0.1283621099837188	-0.1283113346891437	-39.03962138576033	70.06487129428257	-33.85287658198411	-5.139236545722007	-21.28510580853165	-675.5394817049706	68.47775146244867	-2.56672159656624	-1.568043087310075	-0.7432404108482691	11.24610669972097	0.3897879586643177	3.138708386095117	-5.509216394477548	11.0741569020174	11.07415690201794	-3.768661715712285	-0.04887709664810311	3.48698200396075	1.191562082347898	2.087865729750091e-07	9.383262259937721e-08	-1.388142868539483e-06	3.256422351418302e-07	1.032085743188353e-07	-2.195327311102116e-07	-6.167318366329337e-07
0.02	-0.006769045363351326	0.09582697343756577	0.9425702545109506	0.1785528413736914	-0.2321508900758197	-0.2590059883405779	-0.03969870647062955	0.0754363243847236	0.07543632438472325	0.173767681517141	0.1726166495690826	0.03318321579610505	-0.003319642343406135	-0.05288549617431273	-0.03143779754539311	-0.01514217777213763	0.2276676607467698	0.007363406591479305	0.06049243259372578	-0.1086077698665967	0.2237608398055954	0.2237608398056057	-0.07484478747698306	0.001928013827552564	0.07030263274931194	0.02353263466102468	0.2234077883000023	-0.1810120777840015	-0.04029484025878317	-0.3887438158981077	0.358844201701485	-0.115717309455833	-0.1234445013394771	-39.09609658539612	66.61976087723079	-29.0545783903998	-5.80126998266197	-19.71168624652358	-674.2220512425919	77.09169267670168	-2.728351652016794	-1.540849688454463	-0.7771154357024345	11.34830605026936	0.2859254010412575	2.698776932461819	-5.053998114062231	11.11462306131049	11.1146230613111	-3.518740812047366	0.3917128420682793	3.460391956607054	1.081298672411691	2.659571219921181e-07	1.079497096009654e-07	-1.7522038789282e-06	3.177494669988319e-07	1.47193031310279e-07	-4.631307599516625e-07	-7.029265043983702e-07
0.03	-0.007425925434255114	0.09543660878851513	0.942381097394096	0.1813789997012014	-0.2320614628181388	-0.2582587769718461	-0.04104101283743272	0.07821431868355046	0.07821431868355073	0.1728437583878615	0.1726432291150718	0.03405485867684021	-0.003029737558571211	-0.07835784923077782	-0.04656520366948125	-0.02270301607595214	0.3370306782563909	0.01047276156263709	0.08878848023779522	-0.1594888770900603	0.3313349299485444	0.3313349299485419	-0.1096573897644438	0.003346257430209872	0.1038476662974749	0.03436064921724887	0.216435820025349	-0.1831859229373818	-0.03846761596695935	-0.3811956021404225	0.3472324588494021	-0.1082570273267977	-0.1179136547375875	-39.18831501053344	63.26738586597457	-26.48185506041727	-6.119711629690337	-18.08741496124955	-673.0378425120406	81.02792310751259	-2.436749078606987	-1.488167169038329	-0.7477272096752641	10.65031848929939	0.3158408872115014	2.870909404535559	-5.050473065715996	10.50328506669996	10.50328506669779	-3.420398101335397	0.01075646675845623	3.274870627122563	1.070160660151405	2.95234189349231e-07	1.140726335415722e-07	-1.928105381582283e-06	3.661918828004713e-07	1.717100881264854e-07	-6.112508405444992e-07	-7.994615157412728e-07
0.04	-0.008333543424955231	0.09489707385929286	0.9421159000578123	0.1852827919814035	-0.2319424619423344	-0.2572334269818405	-0.04288119148431646	0.0820529504989906	0.08205295049898859	0.1715801336028513	0.1726827663665602	0.03525661420769734	-0.002634231065589254	-0.1030330801330498	-0.06127185357972184	-0.03035022165798498	0.4431944512856447	0.01327813021613513	0.1161201568481066	-0.2081822258826129	0.4358883431280064	0.4358883431279942	-0.1427851186215031	0.004519554928627876	0.1363251627737025	0.04465297629041787	0.2094638517506877	-0.1853597680907641	-0.03664039167516096	-0.3736473883827438	0.3356207159973148	-0.100796745197765	-0.1123828081356979	-39.31402529330387	60.01125111468451	-23.91159309842078	-6.41569792335369	-16.63536236734143	-670.3572771873204	84.69294277325793	-2.568927221178071	-1.456698445685044	-0.7943888913460957	10.70845715419591	0.22512813750931	2.505902725710204	-4.616446427879976	10.5104876686131	10.51048766861432	-3.181766125967084	0.3427236212204288	3.246884542219886	0.974161175800628	3.239361333731481e-07	1.200307293778289e-07	-2.100127306757302e-06	4.157958487865362e-07	1.958257552483571e-07	-7.574023036476739e-07	-8.962097300445356e-07
0.05	-0.009484745149685603	0.09421256780386696	0.9417734395026985	0.1902337617171642	-0.2317968150702244	-0.255942267074915	-0.04519681090242891	0.08692350928472801	0.08692350928472915	0.1699935278530351	0.1727354209245382	0.03677823365905017	-0.002138196853650043	-0.1270801119972403	-0.07555568474136605	-0.03817887031415265	0.5464706227668089	0.01580918198062026	0.1419343822462749	-0.2545969865012375	0.5377203357385173	0.5377203357384954	-0.1742473581668127	0.005952419371553965	0.1678208276488994	0.05447636252063379	0.2022546729048497	-0.1747072314517512	-0.03483066297830567	-0.3670633434969763	0.3276880416626816	-0.10474209036207	-0.1067330196882327	-39.47063093305898	57.48096747139269	-26.13704943188813	-5.982133220179843	-15.37129530680533	-667.9998318727991	78.60388041116261	-2.303479561543755	-1.403135177022624	-0.7828026566351062	10.05788938200761	0.2605517184957581	2.592686194521624	-4.602290192889288	9.944028295965712	9.944028295963497	-3.085438350265711	0.03487707446483936	3.074285697540787	0.974517703525021	3.125708260643731e-07	1.109663884746401e-07	-1.997984945935295e-06	4.43771825388379e-07	1.969853128136635e-07	-8.277376259756076e-07	-9.065568287844661e-07
